<svg xmlns="http://www.w3.org/2000/svg" width="1024" height="1024" viewBox="0 0 1024 1024">
  <rect width="1024" height="1024" rx="224" fill="hsl(246 26% 97%)" />
  <g transform="translate(200 200) scale(26)" fill="none" stroke="hsl(258 36% 50%)" stroke-width="1.8" stroke-linecap="round" stroke-linejoin="round">
    <path d="M11 21.73a2 2 0 0 0 2 0l7-4A2 2 0 0 0 21 16V8a2 2 0 0 0-1-1.73l-7-4a2 2 0 0 0-2 0l-7 4A2 2 0 0 0 3 8v8a2 2 0 0 0 1 1.73z" />
    <path d="M12 22V12" />
    <polyline points="3.29 7 12 12 20.71 7" />
    <path d="m7.5 4.27 9 5.15" />
  </g>
</svg>
